<svg width="588" height="588" viewBox="0 0 588 588" fill="none" xmlns="http://www.w3.org/2000/svg">
<g clip-path="url(#clip0)">
<path d="M86.451 501.459C113.388 528.395 144.766 549.547 179.716 564.33C215.923 579.644 254.358 587.408 293.955 587.408C333.551 587.408 371.987 579.644 408.194 564.33C443.143 549.547 474.522 528.394 501.46 501.459C528.396 474.521 549.55 443.143 564.331 408.193C579.645 371.986 587.411 333.55 587.411 293.955C587.411 254.357 579.645 215.922 564.331 179.716C549.55 144.766 528.395 113.388 501.46 86.451C474.522 59.514 443.144 38.361 408.194 23.579C371.986 8.264 333.551 0.5 293.955 0.5C254.358 0.5 215.923 8.265 179.716 23.579C144.766 38.361 113.388 59.515 86.451 86.451C59.514 113.387 38.361 144.766 23.578 179.715C8.265 215.922 0.5 254.357 0.5 293.955C0.5 333.551 8.265 371.986 23.579 408.193C38.361 443.143 59.515 474.521 86.451 501.459ZM293.955 43.34C432.366 43.34 544.569 155.544 544.569 293.955C544.569 432.365 432.366 544.568 293.955 544.568C155.544 544.568 43.34 432.365 43.34 293.955C43.34 155.544 155.544 43.34 293.955 43.34Z" fill="white"/>
<path d="M293.955 587.908C254.288 587.908 215.788 580.13 179.521 564.791C144.511 549.982 113.079 528.793 86.098 501.812C59.115 474.828 37.926 443.395 23.119 408.387C7.778 372.118 0 333.617 0 293.955C0 254.292 7.778 215.79 23.118 179.52C37.925 144.512 59.115 113.08 86.097 86.097C113.079 59.114 144.512 37.925 179.52 23.118C215.79 7.778 254.291 0 293.954 0C333.62 0 372.121 7.778 408.387 23.119C443.396 37.926 474.828 59.116 501.812 86.098C528.796 113.083 549.985 144.515 564.791 179.521C580.132 215.791 587.91 254.292 587.91 293.955C587.91 333.617 580.132 372.118 564.791 408.388C549.985 443.395 528.797 474.827 501.812 501.813C474.83 528.793 443.397 549.982 408.387 564.792C372.121 580.13 333.62 587.908 293.955 587.908ZM293.955 1C254.426 1 216.057 8.751 179.911 24.039C145.022 38.796 113.696 59.913 86.805 86.804C59.913 113.696 38.796 145.021 24.039 179.909C8.751 216.056 1 254.426 1 293.955C1 333.482 8.751 371.853 24.039 407.999C38.796 442.888 59.913 474.213 86.805 501.105C113.695 527.994 145.02 549.111 179.911 563.87C216.053 579.157 254.423 586.908 293.955 586.908C333.487 586.908 371.856 579.157 407.999 563.869C442.889 549.111 474.215 527.994 501.105 501.105C527.998 474.21 549.114 442.885 563.869 407.999C579.158 371.853 586.91 333.483 586.91 293.955C586.91 254.426 579.158 216.056 563.869 179.911C549.115 145.024 527.998 113.699 501.105 86.805C474.213 59.914 442.887 38.797 407.999 24.04C371.855 8.751 333.485 1 293.955 1ZM293.955 545.068C226.88 545.068 163.819 518.948 116.39 471.519C68.961 424.089 42.84 361.03 42.84 293.955C42.84 226.88 68.96 163.819 116.39 116.39C163.819 68.961 226.88 42.84 293.955 42.84C361.03 42.84 424.09 68.961 471.519 116.39C518.949 163.82 545.069 226.88 545.069 293.955C545.069 361.03 518.949 424.09 471.519 471.519C424.09 518.948 361.029 545.068 293.955 545.068ZM293.955 43.84C227.147 43.84 164.338 69.857 117.097 117.097C69.857 164.338 43.84 227.147 43.84 293.955C43.84 360.763 69.857 423.572 117.097 470.811C164.337 518.051 227.147 544.068 293.955 544.068C360.763 544.068 423.572 518.051 470.812 470.811C518.052 423.572 544.069 360.762 544.069 293.955C544.069 227.147 518.052 164.337 470.812 117.097C423.571 69.856 360.763 43.84 293.955 43.84Z" fill="white"/>
<path d="M184.92 402.988C189.103 407.172 194.584 409.263 200.066 409.263C205.548 409.263 211.03 407.171 215.212 402.988L293.954 324.246L372.697 402.988C376.879 407.172 382.361 409.263 387.843 409.263C393.325 409.263 398.806 407.171 402.989 402.988C411.354 394.625 411.354 381.062 402.989 372.697L324.245 293.955L402.987 215.212C411.352 206.847 411.352 193.284 402.987 184.92C394.624 176.555 381.061 176.555 372.696 184.92L293.953 263.663L215.211 184.92C206.846 176.555 193.283 176.555 184.919 184.92C176.554 193.285 176.554 206.847 184.919 215.212L263.662 293.955L184.919 372.697C176.555 381.062 176.555 394.625 184.92 402.988Z" fill="white"/>
<path d="M387.844 409.764C381.988 409.764 376.484 407.484 372.344 403.342L293.955 324.953L215.567 403.342C211.427 407.484 205.922 409.764 200.067 409.764C194.212 409.764 188.707 407.484 184.567 403.342C180.427 399.202 178.147 393.698 178.147 387.844C178.147 381.989 180.427 376.485 184.567 372.344L262.956 293.955L184.567 215.566C176.021 207.019 176.021 193.113 184.567 184.566C188.707 180.426 194.211 178.146 200.067 178.146C205.922 178.146 211.427 180.426 215.567 184.566L293.956 262.955L372.345 184.566C376.486 180.426 381.99 178.146 387.845 178.146C393.699 178.146 399.203 180.426 403.343 184.566C407.484 188.706 409.763 194.211 409.763 200.066C409.763 205.921 407.484 211.426 403.343 215.566L324.954 293.955L403.345 372.344C407.486 376.485 409.766 381.989 409.766 387.844C409.766 393.698 407.486 399.202 403.345 403.342C399.202 407.483 393.698 409.764 387.844 409.764ZM293.955 323.539L373.051 402.635C377.001 406.587 382.255 408.764 387.844 408.764C393.431 408.764 398.685 406.587 402.637 402.635C406.588 398.685 408.765 393.432 408.765 387.844C408.765 382.256 406.588 377.002 402.637 373.051L323.539 293.955L402.635 214.859C406.586 210.908 408.762 205.654 408.762 200.066C408.762 194.478 406.586 189.225 402.635 185.274C398.685 181.323 393.432 179.147 387.844 179.147C382.256 179.147 377.002 181.323 373.051 185.274L293.955 264.37L214.859 185.274C210.908 181.323 205.654 179.147 200.066 179.147C194.478 179.147 189.225 181.323 185.274 185.274C177.118 193.431 177.118 206.702 185.274 214.859L264.37 293.955L185.274 373.051C181.323 377.002 179.147 382.256 179.147 387.844C179.147 393.432 181.323 398.685 185.274 402.635C189.226 406.587 194.479 408.764 200.067 408.764C205.655 408.764 210.908 406.587 214.86 402.635L293.955 323.539Z" fill="white"/>
</g>
<defs>
<clipPath id="clip0">
<rect width="587.91" height="587.91" fill="white"/>
</clipPath>
</defs>
</svg>
