<svg width="512" height="512" viewBox="0 0 512 512" fill="none" xmlns="http://www.w3.org/2000/svg">
<path d="M458.667 512H53.3333C23.9147 512 0 488.064 0 458.667V53.3333C0 23.936 23.9147 0 53.3333 0H458.667C488.085 0 512 23.936 512 53.3333V458.667C512 488.064 488.085 512 458.667 512ZM53.3333 21.3333C35.6907 21.3333 21.3333 35.6907 21.3333 53.3333V458.667C21.3333 476.309 35.6907 490.667 53.3333 490.667H458.667C476.309 490.667 490.667 476.309 490.667 458.667V53.3333C490.667 35.6907 476.309 21.3333 458.667 21.3333H53.3333Z" fill="white"/>
<path d="M352 170.667H160C154.112 170.667 149.333 165.888 149.333 160C149.333 154.112 154.112 149.333 160 149.333H352C357.888 149.333 362.667 154.112 362.667 160C362.667 165.888 357.888 170.667 352 170.667Z" fill="white"/>
<path d="M352 266.667H160C154.112 266.667 149.333 261.888 149.333 256C149.333 250.112 154.112 245.333 160 245.333H352C357.888 245.333 362.667 250.112 362.667 256C362.667 261.888 357.888 266.667 352 266.667Z" fill="white"/>
<path d="M352 362.667H160C154.112 362.667 149.333 357.888 149.333 352C149.333 346.112 154.112 341.333 160 341.333H352C357.888 341.333 362.667 346.112 362.667 352C362.667 357.888 357.888 362.667 352 362.667Z" fill="white"/>
</svg>
